@startuml

package "Entities" {
    class Task {
      - taskID : int
      - taskName : String
      - startDate : String
      - endDate : String
      - userID : int
      - categoryID : int
      + setTaskName()
      + getTaskName()
    }

    class Subtask {
      - subtaskID : int
      - subtaskName : String
      - taskID : int
      + setSubtaskName()
      + getSubtaskName()
    }

    class User {
      - userID : int
      - username : String
      + login()
      + logout()
    }

    class Category {
      - categoryID : int
      - categoryName : String
      + setCategoryName()
      + getCategoryName()
    }
}

package "Data Access" {
    class TaskDAO {}
    class SubtaskDAO {}
    class UserDAO {}
    class CategoryDAO {}

    class Repository {
      + addTask()
      + updateTask()
      + deleteTask()
      + getUser()
      + addSampleData()
    }
}

package "User Interface" {
    class TaskList {
      + displayTasks()
    }

    class TaskDetails {
      + saveTask()
    }

    class SubtaskDetails {
      + saveSubtask()
    }

    class CalendarActivity {
      + displayTaskCalendar()
    }

    class UserSessionManagement {
      - sharedPreferences : SharedPreferences
      + createSession(int userID)
      + getCurrentUserID()
      + logout()
    }
}

Task <|-- Subtask
TaskDAO --> Task
SubtaskDAO --> Subtask
UserDAO --> User
CategoryDAO --> Category
Repository --> TaskDAO
Repository --> SubtaskDAO
Repository --> UserDAO
Repository --> CategoryDAO
TaskList --> Repository
TaskDetails --> Repository
SubtaskDetails --> Repository
CalendarActivity --> Repository
UserSessionManagement --> User
Task --> User : "userID"
Task --> Category : "categoryID"

@enduml